<?xml version="1.0" encoding="UTF-8" standalone="no"?>
<!-- Created with Inkscape (http://www.inkscape.org/) -->

<svg
   width="25.356998mm"
   height="25.357mm"
   viewBox="0 0 25.356998 25.357"
   version="1.1"
   id="svg1"
   xml:space="preserve"
   inkscape:version="1.3 (0e150ed6c4, 2023-07-21)"
   sodipodi:docname="path4-9.svg"
   xmlns:inkscape="http://www.inkscape.org/namespaces/inkscape"
   xmlns:sodipodi="http://sodipodi.sourceforge.net/DTD/sodipodi-0.dtd"
   xmlns="http://www.w3.org/2000/svg"
   xmlns:svg="http://www.w3.org/2000/svg"><sodipodi:namedview
     id="namedview1"
     pagecolor="#ffffff"
     bordercolor="#000000"
     borderopacity="0.25"
     inkscape:showpageshadow="2"
     inkscape:pageopacity="0.0"
     inkscape:pagecheckerboard="0"
     inkscape:deskcolor="#d1d1d1"
     inkscape:document-units="mm"
     inkscape:zoom="5.6568543"
     inkscape:cx="36.592776"
     inkscape:cy="44.90128"
     inkscape:window-width="1704"
     inkscape:window-height="1368"
     inkscape:window-x="1699"
     inkscape:window-y="0"
     inkscape:window-maximized="0"
     inkscape:current-layer="layer1" /><defs
     id="defs1"><inkscape:path-effect
       effect="fillet_chamfer"
       id="path-effect23"
       is_visible="true"
       lpeversion="1"
       nodesatellites_param="F,0,0,1,0,0,0,1 @ F,0,0,1,0,0,0,1 @ F,0,0,1,0,0,0,1 @ F,0,0,1,0,0,0,1 @ F,0,0,1,0,0,0,1 @ F,0,0,1,0,0,0,1 @ F,0,0,1,0,0,0,1 @ F,0,0,1,0,0,0,1 @ F,0,0,1,0,0,0,1 @ F,0,0,1,0,0,0,1 @ F,0,0,1,0,0,0,1 @ F,0,0,1,0,0,0,1 @ F,0,0,1,0,0,0,1 @ F,0,0,1,0,0,0,1 @ F,0,0,1,0,0,0,1 @ F,0,0,1,0,0,0,1 @ F,0,0,1,0,0,0,1 @ F,0,0,1,0,0,0,1 @ F,0,0,1,0,0,0,1 @ F,0,0,1,0,0,0,1 @ F,0,0,1,0,0,0,1 @ F,0,0,1,0,0,0,1 @ F,0,0,1,0,0,0,1 @ F,0,0,1,0,0,0,1 @ F,0,0,1,0,0,0,1 @ F,0,0,1,0,0,0,1 @ F,0,0,1,0,0,0,1 @ F,0,0,1,0,0,0,1 @ F,0,0,1,0,0,0,1 @ F,0,0,1,0,0,0,1 @ F,0,0,1,0,0,0,1 @ F,0,0,1,0,0,0,1 @ F,0,0,1,0,0,0,1 @ F,0,0,1,0,0,0,1 @ F,0,0,1,0,0,0,1 @ F,0,0,1,0,0,0,1 @ F,0,0,1,0,0,0,1 @ F,0,0,1,0,0,0,1 @ F,0,0,1,0,0,0,1"
       radius="1"
       unit="px"
       method="auto"
       mode="F"
       chamfer_steps="1"
       flexible="false"
       use_knot_distance="true"
       apply_no_radius="true"
       apply_with_radius="true"
       only_selected="false"
       hide_knots="false" /></defs><g
     inkscape:label="Ebene 1"
     inkscape:groupmode="layer"
     id="layer1"
     transform="translate(0.17847939,0.17852105)"><rect
       style="fill:#1ea1b3;fill-opacity:1;stroke:#ffffff;stroke-width:0.357;stroke-miterlimit:4.9;stroke-dasharray:none;stroke-opacity:1"
       id="rect1"
       width="25"
       height="25"
       x="2.0608682e-05"
       y="-2.1056863e-05" /><path
       id="path4-9"
       style="fill:#1ea1b3;fill-opacity:1;stroke:#ffffff;stroke-width:0.771279;stroke-miterlimit:4.9;stroke-dasharray:none;stroke-opacity:1"
       d="m 14.899908,14.999374 c 0,-2.378967 -1.7924,-4.525138 -4.569575,-5.4500318 l -0.02394,-7.4492014 c 0.438376,0 0.79375,-0.3553744 0.79375,-0.79375 V 0.89360923 c 0,-0.43837558 -0.355374,-0.79375 -0.79375,-0.79375 H 4.8936128 c -0.4383756,0 -0.79375,0.35537442 -0.79375,0.79375 V 1.3063908 c 0,0.4383756 0.3553744,0.79375 0.79375,0.79375 l 6.899e-4,7.3832 C 1.6046259,10.443978 1.3448664,12.942186 2.0844688,14.238697 2.6558522,15.366324 4.5694905,16.74176 6.746875,17.545182 L 6.664193,14.667839 7.3421878,14.485937 13.26224,19.529557 7.3587242,24.292058 6.7303388,23.994401 6.7964848,21.216276 C 4.5642789,21.116155 2.3320733,20.406838 0.09986775,19.427865 L 0.09973551,26.7255 c 1.206e-5,0.20786 0.02043614,0.415216 0.06097819,0.619084 0.040621,0.204056 0.10120143,0.403625 0.18086752,0.595829 0.0794672,0.192085 0.17760668,0.375902 0.29300537,0.548804 0.11569247,0.172935 0.24810402,0.334079 0.39532471,0.481108 0.1470527,0.147041 0.3081959,0.279279 0.4811076,0.394808 0.1728806,0.115577 0.356698,0.21389 0.5488037,0.293522 0.192056,0.07946 0.3914502,0.139864 0.5953125,0.180351 0.20402,0.04075 0.4115511,0.06134 0.6196004,0.06149 h 8.4506465 c 0.207877,-1.81e-4 0.415233,-0.02078 0.619084,-0.06149 0.204038,-0.04045 0.403607,-0.100861 0.595829,-0.180351 0.192106,-0.07963 0.375923,-0.177945 0.548804,-0.293522 0.172912,-0.115529 0.334055,-0.247767 0.481108,-0.394808 0.147041,-0.147053 0.279279,-0.308196 0.394808,-0.481108 0.115577,-0.172881 0.21389,-0.356698 0.293522,-0.548804 0.07967,-0.192204 0.140246,-0.391773 0.180867,-0.595829 0.04054,-0.203868 0.06097,-0.411224 0.06098,-0.619084 L 14.9,15"
       sodipodi:nodetypes="cccssssssccccccccccccccccccccccccccsccc"
       inkscape:path-effect="#path-effect23"
       inkscape:original-d="m 14.899908,14.999374 c 0,-2.378967 -1.7924,-4.525138 -4.569575,-5.4500318 l -0.02394,-7.4492014 c 0.438376,0 0.79375,-0.3553744 0.79375,-0.79375 V 0.89360923 c 0,-0.43837558 -0.355374,-0.79375 -0.79375,-0.79375 H 4.8936128 c -0.4383756,0 -0.79375,0.35537442 -0.79375,0.79375 V 1.3063908 c 0,0.4383756 0.3553744,0.79375 0.79375,0.79375 l 6.899e-4,7.3832 C 1.6046259,10.443978 1.3448664,12.942186 2.0844688,14.238697 2.6558522,15.366324 4.5694905,16.74176 6.746875,17.545182 L 6.664193,14.667839 7.3421878,14.485937 13.26224,19.529557 7.3587242,24.292058 6.7303388,23.994401 6.7964848,21.216276 C 4.5642789,21.116155 2.3320733,20.406838 0.09986775,19.427865 L 0.09973551,26.7255 c 1.206e-5,0.20786 0.02043614,0.415216 0.06097819,0.619084 0.040621,0.204056 0.10120143,0.403625 0.18086752,0.595829 0.0794672,0.192085 0.17760668,0.375902 0.29300537,0.548804 0.11569247,0.172935 0.24810402,0.334079 0.39532471,0.481108 0.1470527,0.147041 0.3081959,0.279279 0.4811076,0.394808 0.1728806,0.115577 0.356698,0.21389 0.5488037,0.293522 0.192056,0.07946 0.3914502,0.139864 0.5953125,0.180351 0.20402,0.04075 0.4115511,0.06134 0.6196004,0.06149 h 8.4506465 c 0.207877,-1.81e-4 0.415233,-0.02078 0.619084,-0.06149 0.204038,-0.04045 0.403607,-0.100861 0.595829,-0.180351 0.192106,-0.07963 0.375923,-0.177945 0.548804,-0.293522 0.172912,-0.115529 0.334055,-0.247767 0.481108,-0.394808 0.147041,-0.147053 0.279279,-0.308196 0.394808,-0.481108 0.115577,-0.172881 0.21389,-0.356698 0.293522,-0.548804 0.07967,-0.192204 0.140246,-0.391773 0.180867,-0.595829 0.04054,-0.203868 0.06097,-0.411224 0.06098,-0.619084 L 14.9,15"
       transform="matrix(0.64217956,0,0,0.65419411,7.6836223,2.6869347)" /></g></svg>
